<svg xmlns="http://www.w3.org/2000/svg" xmlns:xlink="http://www.w3.org/1999/xlink" width="380" zoomAndPan="magnify" viewBox="0 0 285 135.000003" height="180" preserveAspectRatio="xMidYMid meet" version="1.0"><defs><g/><clipPath id="4cd87c85ed"><path d="M 14 23 L 271 23 L 271 134.007812 L 14 134.007812 Z M 14 23 " clip-rule="nonzero"/></clipPath><clipPath id="d749bc1825"><path d="M 226.15625 56.050781 L 256.550781 56.050781 L 256.550781 86.449219 L 226.15625 86.449219 Z M 226.15625 56.050781 " clip-rule="nonzero"/></clipPath><clipPath id="d56e65f242"><path d="M 241.351562 56.050781 C 232.960938 56.050781 226.15625 62.855469 226.15625 71.25 C 226.15625 79.644531 232.960938 86.449219 241.351562 86.449219 C 249.746094 86.449219 256.550781 79.644531 256.550781 71.25 C 256.550781 62.855469 249.746094 56.050781 241.351562 56.050781 Z M 241.351562 56.050781 " clip-rule="nonzero"/></clipPath><clipPath id="4f6d30ce6f"><path d="M 0.15625 0.0507812 L 30.550781 0.0507812 L 30.550781 30.449219 L 0.15625 30.449219 Z M 0.15625 0.0507812 " clip-rule="nonzero"/></clipPath><clipPath id="744c0dbda2"><path d="M 15.351562 0.0507812 C 6.960938 0.0507812 0.15625 6.855469 0.15625 15.25 C 0.15625 23.644531 6.960938 30.449219 15.351562 30.449219 C 23.746094 30.449219 30.550781 23.644531 30.550781 15.25 C 30.550781 6.855469 23.746094 0.0507812 15.351562 0.0507812 Z M 15.351562 0.0507812 " clip-rule="nonzero"/></clipPath><clipPath id="eb4d794db3"><rect x="0" width="31" y="0" height="31"/></clipPath><clipPath id="48b936d11a"><path d="M 0.152344 0.347656 L 208 0.347656 L 208 111.007812 L 0.152344 111.007812 Z M 0.152344 0.347656 " clip-rule="nonzero"/></clipPath><clipPath id="c2e74cc6bd"><path d="M 0.152344 0.347656 L 66 0.347656 L 66 89 L 0.152344 89 Z M 0.152344 0.347656 " clip-rule="nonzero"/></clipPath><clipPath id="57b693de65"><path d="M 186 0.347656 L 206 0.347656 L 206 88 L 186 88 Z M 186 0.347656 " clip-rule="nonzero"/></clipPath><clipPath id="bfbdad1ba5"><rect x="0" width="208" y="0" height="112"/></clipPath><clipPath id="ebebe9b034"><rect x="0" width="257" y="0" height="112"/></clipPath></defs><g clip-path="url(#4cd87c85ed)"><g transform="matrix(1, 0, 0, 1, 14, 23)"><g clip-path="url(#ebebe9b034)"><g clip-path="url(#d749bc1825)"><g clip-path="url(#d56e65f242)"><g transform="matrix(1, 0, 0, 1, 226, 56)"><g clip-path="url(#eb4d794db3)"><g clip-path="url(#4f6d30ce6f)"><g clip-path="url(#744c0dbda2)"><path fill="#1b1b1b" d="M 0.15625 0.0507812 L 30.550781 0.0507812 L 30.550781 30.449219 L 0.15625 30.449219 Z M 0.15625 0.0507812 " fill-opacity="1" fill-rule="nonzero"/></g></g></g></g></g></g><g clip-path="url(#48b936d11a)"><g transform="matrix(1, 0, 0, 1, -0.000000000000003553, -0.000000000000007105)"><g clip-path="url(#bfbdad1ba5)"><g clip-path="url(#c2e74cc6bd)"><g fill="#1b1b1b" fill-opacity="1"><g transform="translate(0.842378, 87.208319)"><g><path d="M 4.5 -15.171875 C 2.15625 -19.410156 0.742188 -23.726562 0.265625 -28.125 C -0.203125 -32.519531 0.109375 -36.75 1.203125 -40.8125 C 2.304688 -44.882812 3.972656 -48.53125 6.203125 -51.75 C 8.441406 -54.976562 11.0625 -57.507812 14.0625 -59.34375 C 18.164062 -61.832031 22.742188 -63.078125 27.796875 -63.078125 C 28.828125 -63.078125 30.128906 -62.859375 31.703125 -62.421875 C 33.273438 -61.984375 34.921875 -61.523438 36.640625 -61.046875 C 38.367188 -60.566406 40.019531 -60.289062 41.59375 -60.21875 C 43.164062 -60.144531 44.5 -60.4375 45.59375 -61.09375 C 46.695312 -61.757812 47.394531 -63.003906 47.6875 -64.828125 C 48.050781 -67.472656 48.125 -70.332031 47.90625 -73.40625 C 47.6875 -76.476562 47.503906 -79.375 47.359375 -82.09375 C 47.285156 -83.914062 47.648438 -85.082031 48.453125 -85.59375 C 49.265625 -86.113281 50.347656 -86.335938 51.703125 -86.265625 C 53.054688 -86.191406 54.429688 -86.117188 55.828125 -86.046875 C 57.140625 -86.046875 58.378906 -86.132812 59.546875 -86.3125 C 60.722656 -86.5 61.675781 -86.410156 62.40625 -86.046875 C 63.144531 -85.679688 63.515625 -84.582031 63.515625 -82.75 C 63.515625 -76.007812 63.515625 -69.269531 63.515625 -62.53125 C 63.515625 -55.789062 63.515625 -49.050781 63.515625 -42.3125 C 63.441406 -36.082031 63.585938 -29.832031 63.953125 -23.5625 C 64.316406 -17.300781 64.207031 -11.054688 63.625 -4.828125 C 63.476562 -3.222656 62.960938 -2.179688 62.078125 -1.703125 C 61.203125 -1.222656 60.140625 -1.070312 58.890625 -1.25 C 57.648438 -1.4375 56.367188 -1.75 55.046875 -2.1875 C 53.734375 -2.632812 52.523438 -2.929688 51.421875 -3.078125 C 48.710938 -3.441406 46.1875 -3.476562 43.84375 -3.1875 C 41.5 -2.894531 39.046875 -2.234375 36.484375 -1.203125 C 32.378906 0.328125 28.128906 0.582031 23.734375 -0.4375 C 19.703125 -1.320312 15.960938 -3.097656 12.515625 -5.765625 C 9.078125 -8.441406 6.40625 -11.578125 4.5 -15.171875 Z M 32.3125 -50.328125 C 29.519531 -50.328125 26.894531 -49.425781 24.4375 -47.625 C 21.988281 -45.832031 19.992188 -43.507812 18.453125 -40.65625 C 16.921875 -37.800781 16.15625 -34.757812 16.15625 -31.53125 C 16.15625 -28.457031 16.90625 -25.546875 18.40625 -22.796875 C 19.90625 -20.054688 21.878906 -17.820312 24.328125 -16.09375 C 26.785156 -14.375 29.410156 -13.476562 32.203125 -13.40625 L 32.640625 -13.40625 C 36.367188 -13.40625 39.59375 -14.757812 42.3125 -17.46875 C 45.75 -21.0625 47.46875 -25.789062 47.46875 -31.65625 C 47.46875 -37.070312 46.078125 -41.519531 43.296875 -45 C 40.515625 -48.476562 36.925781 -50.253906 32.53125 -50.328125 Z M 32.3125 -50.328125 "/></g></g></g></g><g fill="#1b1b1b" fill-opacity="1"><g transform="translate(65.230989, 87.208319)"><g><path d="M 61.65625 -27.90625 C 60.769531 -27.175781 59.46875 -26.679688 57.75 -26.421875 C 56.03125 -26.171875 54.195312 -26.046875 52.25 -26.046875 C 50.3125 -26.046875 48.5 -26.082031 46.8125 -26.15625 C 45.125 -26.226562 43.84375 -26.265625 42.96875 -26.265625 C 39.15625 -26.191406 35.378906 -26.132812 31.640625 -26.09375 C 27.910156 -26.0625 24.140625 -26.046875 20.328125 -26.046875 C 19.160156 -26.046875 18.410156 -25.675781 18.078125 -24.9375 C 17.742188 -24.207031 17.707031 -23.382812 17.96875 -22.46875 C 18.226562 -21.550781 18.578125 -20.765625 19.015625 -20.109375 C 20.546875 -18.128906 22.460938 -16.535156 24.765625 -15.328125 C 27.078125 -14.117188 29.484375 -13.367188 31.984375 -13.078125 C 34.765625 -12.785156 37.085938 -13.171875 38.953125 -14.234375 C 40.828125 -15.296875 42.9375 -16.410156 45.28125 -17.578125 C 46.375 -18.171875 47.117188 -18.539062 47.515625 -18.6875 C 47.921875 -18.832031 48.601562 -18.5 49.5625 -17.6875 C 50.582031 -16.882812 51.550781 -15.785156 52.46875 -14.390625 C 53.382812 -13.003906 54.285156 -11.796875 55.171875 -10.765625 C 56.117188 -9.523438 56.078125 -8.351562 55.046875 -7.25 C 54.023438 -6.15625 52.453125 -5.148438 50.328125 -4.234375 C 48.203125 -3.316406 45.894531 -2.523438 43.40625 -1.859375 C 40.914062 -1.203125 38.660156 -0.691406 36.640625 -0.328125 C 34.628906 0.0351562 33.257812 0.21875 32.53125 0.21875 C 27.625 0.21875 23.097656 -0.75 18.953125 -2.6875 C 14.816406 -4.632812 11.28125 -7.273438 8.34375 -10.609375 C 5.414062 -13.941406 3.21875 -17.691406 1.75 -21.859375 C 0.289062 -26.035156 -0.273438 -30.414062 0.046875 -35 C 0.378906 -39.582031 1.789062 -44.035156 4.28125 -48.359375 C 6.1875 -51.722656 8.734375 -54.578125 11.921875 -56.921875 C 15.109375 -59.265625 18.625 -61.003906 22.46875 -62.140625 C 26.3125 -63.273438 30.25 -63.785156 34.28125 -63.671875 C 38.3125 -63.566406 42.140625 -62.765625 45.765625 -61.265625 C 49.390625 -59.765625 52.5625 -57.507812 55.28125 -54.5 C 56.519531 -53.113281 57.707031 -51.375 58.84375 -49.28125 C 59.976562 -47.195312 60.945312 -44.945312 61.75 -42.53125 C 62.5625 -40.113281 63.054688 -37.75 63.234375 -35.4375 C 63.421875 -33.132812 63.1875 -31.03125 62.53125 -29.125 C 62.382812 -28.6875 62.09375 -28.28125 61.65625 -27.90625 Z M 45.0625 -39.34375 C 45.28125 -39.851562 45.351562 -40.398438 45.28125 -40.984375 C 45.207031 -41.867188 44.800781 -42.710938 44.0625 -43.515625 C 42.082031 -46.296875 39.519531 -48.347656 36.375 -49.671875 C 33.226562 -50.992188 30.003906 -50.921875 26.703125 -49.453125 C 25.234375 -48.796875 23.859375 -47.953125 22.578125 -46.921875 C 21.296875 -45.898438 20.109375 -44.800781 19.015625 -43.625 C 18.722656 -43.332031 18.425781 -43.003906 18.125 -42.640625 C 17.832031 -42.273438 17.613281 -41.867188 17.46875 -41.421875 C 17.175781 -40.546875 17.320312 -39.738281 17.90625 -39 C 18.5 -38.269531 19.234375 -37.90625 20.109375 -37.90625 L 42.53125 -37.90625 C 43.769531 -37.90625 44.613281 -38.382812 45.0625 -39.34375 Z M 45.0625 -39.34375 "/></g></g></g><g fill="#1b1b1b" fill-opacity="1"><g transform="translate(128.74057, 87.208319)"><g><path d="M 55.28125 -56.703125 C 56.664062 -55.160156 57.101562 -53.515625 56.59375 -51.765625 C 56.375 -50.953125 55.988281 -50.195312 55.4375 -49.5 C 54.882812 -48.8125 54.316406 -48.132812 53.734375 -47.46875 C 53.367188 -47.101562 53.003906 -46.738281 52.640625 -46.375 C 52.273438 -46.007812 51.90625 -45.644531 51.53125 -45.28125 C 50.945312 -44.613281 50.160156 -44.390625 49.171875 -44.609375 C 48.179688 -44.828125 47.191406 -45.191406 46.203125 -45.703125 C 45.210938 -46.222656 44.351562 -46.59375 43.625 -46.8125 C 42.007812 -47.394531 40.414062 -47.90625 38.84375 -48.34375 C 37.269531 -48.789062 35.640625 -49.125 33.953125 -49.34375 C 33.585938 -49.414062 33.238281 -49.453125 32.90625 -49.453125 C 32.582031 -49.453125 32.238281 -49.453125 31.875 -49.453125 C 28.28125 -49.453125 25.070312 -48.367188 22.25 -46.203125 C 19.425781 -44.046875 17.503906 -41.171875 16.484375 -37.578125 C 15.378906 -33.703125 15.488281 -29.894531 16.8125 -26.15625 C 18.132812 -22.414062 20.40625 -19.410156 23.625 -17.140625 C 26.113281 -15.453125 29.335938 -14.609375 33.296875 -14.609375 C 38.347656 -14.609375 42.414062 -15.816406 45.5 -18.234375 C 46.957031 -19.410156 48.179688 -20.160156 49.171875 -20.484375 C 50.160156 -20.816406 51.351562 -20.144531 52.75 -18.46875 C 53.476562 -17.726562 54.191406 -16.9375 54.890625 -16.09375 C 55.585938 -15.25 56.265625 -14.390625 56.921875 -13.515625 C 57.796875 -12.347656 57.941406 -11.210938 57.359375 -10.109375 C 56.773438 -9.015625 55.785156 -7.988281 54.390625 -7.03125 C 53.003906 -6.082031 51.554688 -5.257812 50.046875 -4.5625 C 48.546875 -3.863281 47.394531 -3.332031 46.59375 -2.96875 C 42.125 -0.84375 37.4375 0.21875 32.53125 0.21875 C 27.695312 0.21875 23.082031 -0.820312 18.6875 -2.90625 C 14.289062 -5 10.367188 -7.953125 6.921875 -11.765625 C 3.992188 -15.203125 2.050781 -18.75 1.09375 -22.40625 C 0.144531 -26.070312 -0.164062 -29.664062 0.15625 -33.1875 C 0.488281 -36.707031 1.097656 -39.894531 1.984375 -42.75 C 3.878906 -48.601562 6.96875 -53.289062 11.25 -56.8125 C 15.539062 -60.332031 20.875 -62.492188 27.25 -63.296875 C 29.375 -63.515625 31.351562 -63.625 33.1875 -63.625 C 34.207031 -63.625 35.707031 -63.492188 37.6875 -63.234375 C 39.664062 -62.984375 41.789062 -62.582031 44.0625 -62.03125 C 46.332031 -61.476562 48.492188 -60.765625 50.546875 -59.890625 C 52.597656 -59.015625 54.175781 -57.953125 55.28125 -56.703125 Z M 55.28125 -56.703125 "/></g></g></g><g clip-path="url(#57b693de65)"><g fill="#1b1b1b" fill-opacity="1"><g transform="translate(186.646303, 87.208319)"><g><path d="M 4.171875 -69.234375 C 2.566406 -70.253906 1.394531 -71.695312 0.65625 -73.5625 C -0.0703125 -75.4375 -0.109375 -77.472656 0.546875 -79.671875 C 1.796875 -83.992188 4.726562 -86.226562 9.34375 -86.375 L 9.5625 -86.375 C 11.832031 -86.375 13.734375 -85.769531 15.265625 -84.5625 C 16.804688 -83.351562 17.835938 -81.6875 18.359375 -79.5625 C 19.015625 -76.925781 18.753906 -74.507812 17.578125 -72.3125 C 16.410156 -70.113281 14.429688 -68.679688 11.640625 -68.015625 C 10.253906 -67.722656 8.921875 -67.6875 7.640625 -67.90625 C 6.359375 -68.125 5.203125 -68.566406 4.171875 -69.234375 Z M 2.640625 -58.234375 C 3.660156 -58.898438 5.125 -59.195312 7.03125 -59.125 C 8.132812 -59.125 9.34375 -59.160156 10.65625 -59.234375 C 11.976562 -59.304688 13.207031 -59.175781 14.34375 -58.84375 C 15.476562 -58.519531 16.226562 -57.769531 16.59375 -56.59375 C 17.25 -54.757812 17.46875 -52.539062 17.25 -49.9375 C 17.03125 -47.34375 16.921875 -45.09375 16.921875 -43.1875 C 16.992188 -38.71875 17.03125 -34.285156 17.03125 -29.890625 C 17.03125 -25.492188 17.066406 -21.0625 17.140625 -16.59375 C 17.140625 -15.863281 17.226562 -14.632812 17.40625 -12.90625 C 17.59375 -11.1875 17.703125 -9.335938 17.734375 -7.359375 C 17.773438 -5.378906 17.578125 -3.691406 17.140625 -2.296875 C 16.703125 -0.910156 15.820312 -0.179688 14.5 -0.109375 C 12.820312 -0.0351562 11.066406 0.015625 9.234375 0.046875 C 7.398438 0.0859375 5.640625 0 3.953125 -0.21875 C 2.785156 -0.363281 1.976562 -1.003906 1.53125 -2.140625 C 1.09375 -3.273438 0.851562 -4.648438 0.8125 -6.265625 C 0.78125 -7.878906 0.835938 -9.414062 0.984375 -10.875 C 1.128906 -12.34375 1.203125 -13.476562 1.203125 -14.28125 C 1.128906 -17.289062 1.070312 -20.3125 1.03125 -23.34375 C 1 -26.382812 0.984375 -29.410156 0.984375 -32.421875 C 0.910156 -34.984375 0.875 -37.546875 0.875 -40.109375 C 0.875 -42.671875 0.835938 -45.195312 0.765625 -47.6875 C 0.765625 -49.8125 0.726562 -51.863281 0.65625 -53.84375 C 0.582031 -55.820312 1.242188 -57.285156 2.640625 -58.234375 Z M 2.640625 -58.234375 "/></g></g></g></g></g></g></g></g></g></g></svg>