<svg xmlns="http://www.w3.org/2000/svg" xmlns:xlink="http://www.w3.org/1999/xlink" width="500" zoomAndPan="magnify" viewBox="0 0 375 374.999991" height="500" preserveAspectRatio="xMidYMid meet" version="1.0"><defs><g/><clipPath id="f6010175ef"><path d="M 0.078125 0.441406 L 220 0.441406 L 220 338 L 0.078125 338 Z M 0.078125 0.441406 " clip-rule="nonzero"/></clipPath><clipPath id="5d2ec94a08"><rect x="0" width="220" y="0" height="338"/></clipPath><clipPath id="8a75bb8455"><path d="M 230.816406 214.910156 L 297.5 214.910156 L 297.5 281.597656 L 230.816406 281.597656 Z M 230.816406 214.910156 " clip-rule="nonzero"/></clipPath><clipPath id="130bd776e8"><path d="M 264.15625 214.910156 C 245.742188 214.910156 230.816406 229.839844 230.816406 248.253906 C 230.816406 266.667969 245.742188 281.597656 264.15625 281.597656 C 282.570312 281.597656 297.5 266.667969 297.5 248.253906 C 297.5 229.839844 282.570312 214.910156 264.15625 214.910156 Z M 264.15625 214.910156 " clip-rule="nonzero"/></clipPath><clipPath id="a0083249fc"><path d="M 0.816406 0.910156 L 67.5 0.910156 L 67.5 67.597656 L 0.816406 67.597656 Z M 0.816406 0.910156 " clip-rule="nonzero"/></clipPath><clipPath id="de665a399e"><path d="M 34.15625 0.910156 C 15.742188 0.910156 0.816406 15.839844 0.816406 34.253906 C 0.816406 52.667969 15.742188 67.597656 34.15625 67.597656 C 52.570312 67.597656 67.5 52.667969 67.5 34.253906 C 67.5 15.839844 52.570312 0.910156 34.15625 0.910156 Z M 34.15625 0.910156 " clip-rule="nonzero"/></clipPath><clipPath id="bab8723de5"><rect x="0" width="68" y="0" height="68"/></clipPath><clipPath id="7552cff3df"><rect x="0" width="298" y="0" height="338"/></clipPath></defs><rect x="-37.5" width="450" fill="#ffffff" y="-37.499999" height="449.999989" fill-opacity="1"/><rect x="-37.5" width="450" fill="#ffffff" y="-37.499999" height="449.999989" fill-opacity="1"/><g transform="matrix(1, 0, 0, 1, 40, 37)"><g clip-path="url(#7552cff3df)"><g clip-path="url(#f6010175ef)"><g><g clip-path="url(#5d2ec94a08)"><g fill="#1b1b1b" fill-opacity="1"><g transform="translate(5.336746, 279.7897)"><g><path d="M 14.421875 -48.546875 C 6.921875 -62.148438 2.40625 -75.988281 0.875 -90.0625 C -0.644531 -104.132812 0.347656 -117.675781 3.859375 -130.6875 C 7.378906 -143.707031 12.71875 -155.378906 19.875 -165.703125 C 27.03125 -176.023438 35.414062 -184.117188 45.03125 -189.984375 C 58.164062 -197.953125 72.828125 -201.9375 89.015625 -201.9375 C 92.296875 -201.9375 96.457031 -201.234375 101.5 -199.828125 C 106.539062 -198.421875 111.816406 -196.953125 117.328125 -195.421875 C 122.835938 -193.898438 128.113281 -193.019531 133.15625 -192.78125 C 138.195312 -192.550781 142.476562 -193.492188 146 -195.609375 C 149.519531 -197.722656 151.75 -201.707031 152.6875 -207.5625 C 153.863281 -216.007812 154.097656 -225.15625 153.390625 -235 C 152.679688 -244.851562 152.09375 -254.117188 151.625 -262.796875 C 151.394531 -268.660156 152.566406 -272.414062 155.140625 -274.0625 C 157.722656 -275.707031 161.179688 -276.410156 165.515625 -276.171875 C 169.859375 -275.941406 174.257812 -275.707031 178.71875 -275.46875 C 182.9375 -275.46875 186.921875 -275.757812 190.671875 -276.34375 C 194.429688 -276.9375 197.484375 -276.644531 199.828125 -275.46875 C 202.171875 -274.289062 203.34375 -270.773438 203.34375 -264.921875 C 203.34375 -243.335938 203.34375 -221.753906 203.34375 -200.171875 C 203.34375 -178.597656 203.34375 -157.023438 203.34375 -135.453125 C 203.113281 -115.515625 203.582031 -95.519531 204.75 -75.46875 C 205.925781 -55.414062 205.578125 -35.421875 203.703125 -15.484375 C 203.234375 -10.316406 201.585938 -6.972656 198.765625 -5.453125 C 195.953125 -3.929688 192.550781 -3.460938 188.5625 -4.046875 C 184.582031 -4.628906 180.476562 -5.625 176.25 -7.03125 C 172.03125 -8.4375 168.160156 -9.375 164.640625 -9.84375 C 155.960938 -11.019531 147.867188 -11.140625 140.359375 -10.203125 C 132.859375 -9.265625 125.003906 -7.15625 116.796875 -3.875 C 103.660156 1.050781 90.054688 1.875 75.984375 -1.40625 C 63.085938 -4.21875 51.128906 -9.90625 40.109375 -18.46875 C 29.085938 -27.03125 20.523438 -37.054688 14.421875 -48.546875 Z M 103.4375 -161.125 C 94.519531 -161.125 86.132812 -158.25 78.28125 -152.5 C 70.425781 -146.757812 64.035156 -139.316406 59.109375 -130.171875 C 54.179688 -121.023438 51.71875 -111.289062 51.71875 -100.96875 C 51.71875 -91.113281 54.117188 -81.789062 58.921875 -73 C 63.734375 -64.207031 70.066406 -57.050781 77.921875 -51.53125 C 85.785156 -46.019531 94.171875 -43.148438 103.078125 -42.921875 L 104.484375 -42.921875 C 116.453125 -42.921875 126.773438 -47.257812 135.453125 -55.9375 C 146.472656 -67.425781 151.984375 -82.554688 151.984375 -101.328125 C 151.984375 -118.679688 147.523438 -132.925781 138.609375 -144.0625 C 129.703125 -155.207031 118.210938 -160.894531 104.140625 -161.125 Z M 103.4375 -161.125 "/></g></g></g></g></g></g><g clip-path="url(#8a75bb8455)"><g clip-path="url(#130bd776e8)"><g transform="matrix(1, 0, 0, 1, 230, 214)"><g clip-path="url(#bab8723de5)"><g clip-path="url(#a0083249fc)"><g clip-path="url(#de665a399e)"><path fill="#1b1b1b" d="M 0.816406 0.910156 L 67.5 0.910156 L 67.5 67.597656 L 0.816406 67.597656 Z M 0.816406 0.910156 " fill-opacity="1" fill-rule="nonzero"/></g></g></g></g></g></g></g></g></svg>