<svg xmlns="http://www.w3.org/2000/svg" xmlns:xlink="http://www.w3.org/1999/xlink" width="600" zoomAndPan="magnify" viewBox="0 0 450 149.999998" height="200" preserveAspectRatio="xMidYMid meet" version="1.0"><defs><g/><clipPath id="4b585961df"><path d="M 313.726562 89.875 L 353.96875 89.875 L 353.96875 130.121094 L 313.726562 130.121094 Z M 313.726562 89.875 " clip-rule="nonzero"/></clipPath><clipPath id="2600b8e5b0"><path d="M 333.847656 89.875 C 322.734375 89.875 313.726562 98.882812 313.726562 109.996094 C 313.726562 121.109375 322.734375 130.121094 333.847656 130.121094 C 344.960938 130.121094 353.96875 121.109375 353.96875 109.996094 C 353.96875 98.882812 344.960938 89.875 333.847656 89.875 Z M 333.847656 89.875 " clip-rule="nonzero"/></clipPath><clipPath id="fadcc9ee84"><path d="M 0.726562 0.875 L 40.96875 0.875 L 40.96875 41.121094 L 0.726562 41.121094 Z M 0.726562 0.875 " clip-rule="nonzero"/></clipPath><clipPath id="0f8d83f4c5"><path d="M 20.847656 0.875 C 9.734375 0.875 0.726562 9.882812 0.726562 20.996094 C 0.726562 32.109375 9.734375 41.121094 20.847656 41.121094 C 31.960938 41.121094 40.96875 32.109375 40.96875 20.996094 C 40.96875 9.882812 31.960938 0.875 20.847656 0.875 Z M 20.847656 0.875 " clip-rule="nonzero"/></clipPath><clipPath id="cd69b3c0ce"><rect x="0" width="41" y="0" height="42"/></clipPath></defs><g clip-path="url(#4b585961df)"><g clip-path="url(#2600b8e5b0)"><g transform="matrix(1, 0, 0, 1, 313, 89)"><g clip-path="url(#cd69b3c0ce)"><g clip-path="url(#fadcc9ee84)"><g clip-path="url(#0f8d83f4c5)"><path fill="#1b1b1b" d="M 0.726562 0.875 L 40.96875 0.875 L 40.96875 41.121094 L 0.726562 41.121094 Z M 0.726562 0.875 " fill-opacity="1" fill-rule="nonzero"/></g></g></g></g></g></g><g fill="#1b1b1b" fill-opacity="1"><g transform="translate(15.418076, 131.125672)"><g><path d="M 5.96875 -20.078125 C 2.863281 -25.703125 0.992188 -31.421875 0.359375 -37.234375 C -0.265625 -43.054688 0.144531 -48.660156 1.59375 -54.046875 C 3.050781 -59.429688 5.257812 -64.253906 8.21875 -68.515625 C 11.175781 -72.785156 14.644531 -76.132812 18.625 -78.5625 C 24.050781 -81.863281 30.113281 -83.515625 36.8125 -83.515625 C 38.164062 -83.515625 39.882812 -83.222656 41.96875 -82.640625 C 44.050781 -82.054688 46.234375 -81.445312 48.515625 -80.8125 C 50.796875 -80.1875 52.976562 -79.820312 55.0625 -79.71875 C 57.144531 -79.625 58.914062 -80.015625 60.375 -80.890625 C 61.832031 -81.765625 62.753906 -83.410156 63.140625 -85.828125 C 63.628906 -89.328125 63.726562 -93.113281 63.4375 -97.1875 C 63.144531 -101.257812 62.898438 -105.085938 62.703125 -108.671875 C 62.609375 -111.097656 63.09375 -112.648438 64.15625 -113.328125 C 65.226562 -114.003906 66.660156 -114.296875 68.453125 -114.203125 C 70.242188 -114.109375 72.0625 -114.015625 73.90625 -113.921875 C 75.65625 -113.921875 77.304688 -114.039062 78.859375 -114.28125 C 80.410156 -114.519531 81.671875 -114.394531 82.640625 -113.90625 C 83.609375 -113.425781 84.09375 -111.972656 84.09375 -109.546875 C 84.09375 -100.628906 84.09375 -91.707031 84.09375 -82.78125 C 84.09375 -73.851562 84.09375 -64.929688 84.09375 -56.015625 C 83.988281 -47.765625 84.179688 -39.492188 84.671875 -31.203125 C 85.160156 -22.910156 85.015625 -14.644531 84.234375 -6.40625 C 84.035156 -4.269531 83.351562 -2.882812 82.1875 -2.25 C 81.03125 -1.625 79.625 -1.429688 77.96875 -1.671875 C 76.320312 -1.910156 74.625 -2.320312 72.875 -2.90625 C 71.132812 -3.488281 69.539062 -3.878906 68.09375 -4.078125 C 64.5 -4.554688 61.148438 -4.601562 58.046875 -4.21875 C 54.941406 -3.832031 51.691406 -2.957031 48.296875 -1.59375 C 42.867188 0.4375 37.242188 0.773438 31.421875 -0.578125 C 26.085938 -1.742188 21.140625 -4.097656 16.578125 -7.640625 C 12.023438 -11.179688 8.488281 -15.328125 5.96875 -20.078125 Z M 42.765625 -66.625 C 39.085938 -66.625 35.625 -65.4375 32.375 -63.0625 C 29.125 -60.6875 26.476562 -57.609375 24.4375 -53.828125 C 22.40625 -50.046875 21.390625 -46.019531 21.390625 -41.75 C 21.390625 -37.675781 22.378906 -33.820312 24.359375 -30.1875 C 26.347656 -26.550781 28.96875 -23.59375 32.21875 -21.3125 C 35.46875 -19.03125 38.9375 -17.84375 42.625 -17.75 L 43.203125 -17.75 C 48.148438 -17.75 52.421875 -19.539062 56.015625 -23.125 C 60.566406 -27.882812 62.84375 -34.144531 62.84375 -41.90625 C 62.84375 -49.082031 61 -54.972656 57.3125 -59.578125 C 53.632812 -64.179688 48.882812 -66.53125 43.0625 -66.625 Z M 42.765625 -66.625 "/></g></g></g><g fill="#1b1b1b" fill-opacity="1"><g transform="translate(100.66645, 131.125672)"><g><path d="M 81.609375 -36.953125 C 80.453125 -35.984375 78.734375 -35.328125 76.453125 -34.984375 C 74.171875 -34.648438 71.742188 -34.484375 69.171875 -34.484375 C 66.609375 -34.484375 64.207031 -34.53125 61.96875 -34.625 C 59.738281 -34.71875 58.046875 -34.765625 56.890625 -34.765625 C 51.835938 -34.671875 46.835938 -34.597656 41.890625 -34.546875 C 36.953125 -34.503906 31.960938 -34.484375 26.921875 -34.484375 C 25.367188 -34.484375 24.375 -33.992188 23.9375 -33.015625 C 23.5 -32.046875 23.445312 -30.957031 23.78125 -29.75 C 24.125 -28.539062 24.585938 -27.5 25.171875 -26.625 C 27.203125 -24.007812 29.742188 -21.898438 32.796875 -20.296875 C 35.859375 -18.691406 39.039062 -17.695312 42.34375 -17.3125 C 46.019531 -16.925781 49.09375 -17.4375 51.5625 -18.84375 C 54.039062 -20.25 56.832031 -21.726562 59.9375 -23.28125 C 61.394531 -24.050781 62.390625 -24.53125 62.921875 -24.71875 C 63.453125 -24.914062 64.347656 -24.484375 65.609375 -23.421875 C 66.972656 -22.359375 68.257812 -20.90625 69.46875 -19.0625 C 70.675781 -17.21875 71.863281 -15.613281 73.03125 -14.25 C 74.289062 -12.601562 74.238281 -11.050781 72.875 -9.59375 C 71.519531 -8.144531 69.4375 -6.8125 66.625 -5.59375 C 63.8125 -4.382812 60.753906 -3.34375 57.453125 -2.46875 C 54.160156 -1.59375 51.179688 -0.910156 48.515625 -0.421875 C 45.847656 0.0546875 44.03125 0.296875 43.0625 0.296875 C 36.5625 0.296875 30.570312 -0.988281 25.09375 -3.5625 C 19.613281 -6.132812 14.929688 -9.625 11.046875 -14.03125 C 7.171875 -18.445312 4.265625 -23.421875 2.328125 -28.953125 C 0.390625 -34.484375 -0.359375 -40.273438 0.078125 -46.328125 C 0.515625 -52.390625 2.378906 -58.285156 5.671875 -64.015625 C 8.191406 -68.472656 11.5625 -72.253906 15.78125 -75.359375 C 20 -78.460938 24.65625 -80.765625 29.75 -82.265625 C 34.84375 -83.773438 40.054688 -84.457031 45.390625 -84.3125 C 50.722656 -84.164062 55.789062 -83.097656 60.59375 -81.109375 C 65.394531 -79.117188 69.585938 -76.132812 73.171875 -72.15625 C 74.828125 -70.3125 76.40625 -68.007812 77.90625 -65.25 C 79.40625 -62.488281 80.6875 -59.503906 81.75 -56.296875 C 82.820312 -53.097656 83.476562 -49.972656 83.71875 -46.921875 C 83.96875 -43.867188 83.65625 -41.078125 82.78125 -38.546875 C 82.582031 -37.972656 82.191406 -37.441406 81.609375 -36.953125 Z M 59.65625 -52.078125 C 59.9375 -52.765625 60.03125 -53.492188 59.9375 -54.265625 C 59.84375 -55.429688 59.3125 -56.546875 58.34375 -57.609375 C 55.71875 -61.296875 52.320312 -64.007812 48.15625 -65.75 C 43.988281 -67.5 39.722656 -67.40625 35.359375 -65.46875 C 33.410156 -64.59375 31.585938 -63.472656 29.890625 -62.109375 C 28.191406 -60.753906 26.617188 -59.300781 25.171875 -57.75 C 24.785156 -57.363281 24.394531 -56.925781 24 -56.4375 C 23.613281 -55.957031 23.320312 -55.425781 23.125 -54.84375 C 22.738281 -53.6875 22.929688 -52.617188 23.703125 -51.640625 C 24.484375 -50.671875 25.457031 -50.1875 26.625 -50.1875 L 56.296875 -50.1875 C 57.953125 -50.1875 59.070312 -50.816406 59.65625 -52.078125 Z M 59.65625 -52.078125 "/></g></g></g><g fill="#1b1b1b" fill-opacity="1"><g transform="translate(184.751017, 131.125672)"><g><path d="M 73.171875 -75.0625 C 75.015625 -73.03125 75.597656 -70.847656 74.921875 -68.515625 C 74.628906 -67.453125 74.117188 -66.457031 73.390625 -65.53125 C 72.671875 -64.613281 71.921875 -63.71875 71.140625 -62.84375 C 70.660156 -62.363281 70.175781 -61.878906 69.6875 -61.390625 C 69.195312 -60.910156 68.710938 -60.425781 68.234375 -59.9375 C 67.453125 -59.0625 66.40625 -58.769531 65.09375 -59.0625 C 63.789062 -59.351562 62.484375 -59.835938 61.171875 -60.515625 C 59.867188 -61.203125 58.726562 -61.6875 57.75 -61.96875 C 55.625 -62.75 53.515625 -63.429688 51.421875 -64.015625 C 49.335938 -64.597656 47.179688 -65.035156 44.953125 -65.328125 C 44.472656 -65.421875 44.015625 -65.46875 43.578125 -65.46875 C 43.140625 -65.46875 42.675781 -65.46875 42.1875 -65.46875 C 37.4375 -65.46875 33.191406 -64.035156 29.453125 -61.171875 C 25.722656 -58.316406 23.179688 -54.507812 21.828125 -49.75 C 20.367188 -44.613281 20.507812 -39.570312 22.25 -34.625 C 24 -29.675781 27.007812 -25.703125 31.28125 -22.703125 C 34.570312 -20.460938 38.835938 -19.34375 44.078125 -19.34375 C 50.773438 -19.34375 56.160156 -20.945312 60.234375 -24.15625 C 62.171875 -25.707031 63.789062 -26.695312 65.09375 -27.125 C 66.40625 -27.5625 67.984375 -26.664062 69.828125 -24.4375 C 70.796875 -23.46875 71.738281 -22.425781 72.65625 -21.3125 C 73.582031 -20.195312 74.484375 -19.054688 75.359375 -17.890625 C 76.523438 -16.335938 76.71875 -14.832031 75.9375 -13.375 C 75.164062 -11.925781 73.859375 -10.570312 72.015625 -9.3125 C 70.171875 -8.050781 68.253906 -6.957031 66.265625 -6.03125 C 64.273438 -5.113281 62.75 -4.410156 61.6875 -3.921875 C 55.769531 -1.109375 49.5625 0.296875 43.0625 0.296875 C 36.664062 0.296875 30.554688 -1.082031 24.734375 -3.84375 C 18.910156 -6.613281 13.722656 -10.519531 9.171875 -15.5625 C 5.285156 -20.125 2.710938 -24.828125 1.453125 -29.671875 C 0.191406 -34.523438 -0.21875 -39.28125 0.21875 -43.9375 C 0.65625 -48.59375 1.457031 -52.8125 2.625 -56.59375 C 5.144531 -64.351562 9.238281 -70.5625 14.90625 -75.21875 C 20.582031 -79.875 27.640625 -82.734375 36.078125 -83.796875 C 38.890625 -84.085938 41.507812 -84.234375 43.9375 -84.234375 C 45.289062 -84.234375 47.273438 -84.0625 49.890625 -83.71875 C 52.515625 -83.382812 55.328125 -82.851562 58.328125 -82.125 C 61.335938 -81.394531 64.203125 -80.445312 66.921875 -79.28125 C 69.640625 -78.125 71.722656 -76.71875 73.171875 -75.0625 Z M 73.171875 -75.0625 "/></g></g></g><g fill="#1b1b1b" fill-opacity="1"><g transform="translate(261.416276, 131.125672)"><g><path d="M 5.53125 -91.65625 C 3.394531 -93.007812 1.84375 -94.921875 0.875 -97.390625 C -0.09375 -99.867188 -0.140625 -102.5625 0.734375 -105.46875 C 2.378906 -111.195312 6.253906 -114.15625 12.359375 -114.34375 L 12.65625 -114.34375 C 15.664062 -114.34375 18.1875 -113.539062 20.21875 -111.9375 C 22.257812 -110.34375 23.617188 -108.140625 24.296875 -105.328125 C 25.171875 -101.835938 24.832031 -98.632812 23.28125 -95.71875 C 21.726562 -92.8125 19.109375 -90.925781 15.421875 -90.0625 C 13.578125 -89.664062 11.804688 -89.613281 10.109375 -89.90625 C 8.410156 -90.195312 6.882812 -90.78125 5.53125 -91.65625 Z M 3.484375 -77.109375 C 4.847656 -77.984375 6.789062 -78.367188 9.3125 -78.265625 C 10.769531 -78.265625 12.367188 -78.3125 14.109375 -78.40625 C 15.859375 -78.507812 17.484375 -78.34375 18.984375 -77.90625 C 20.484375 -77.46875 21.476562 -76.472656 21.96875 -74.921875 C 22.84375 -72.492188 23.132812 -69.554688 22.84375 -66.109375 C 22.550781 -62.671875 22.40625 -59.691406 22.40625 -57.171875 C 22.5 -51.253906 22.546875 -45.382812 22.546875 -39.5625 C 22.546875 -33.75 22.597656 -27.882812 22.703125 -21.96875 C 22.703125 -21 22.820312 -19.375 23.0625 -17.09375 C 23.300781 -14.8125 23.441406 -12.359375 23.484375 -9.734375 C 23.535156 -7.117188 23.269531 -4.890625 22.6875 -3.046875 C 22.113281 -1.210938 20.953125 -0.242188 19.203125 -0.140625 C 16.972656 -0.046875 14.644531 0.0195312 12.21875 0.0625 C 9.789062 0.113281 7.460938 -0.00390625 5.234375 -0.296875 C 3.679688 -0.484375 2.613281 -1.328125 2.03125 -2.828125 C 1.445312 -4.335938 1.128906 -6.160156 1.078125 -8.296875 C 1.035156 -10.429688 1.109375 -12.46875 1.296875 -14.40625 C 1.492188 -16.34375 1.59375 -17.84375 1.59375 -18.90625 C 1.5 -22.882812 1.425781 -26.882812 1.375 -30.90625 C 1.332031 -34.9375 1.3125 -38.941406 1.3125 -42.921875 C 1.207031 -46.316406 1.15625 -49.707031 1.15625 -53.09375 C 1.15625 -56.488281 1.109375 -59.835938 1.015625 -63.140625 C 1.015625 -65.953125 0.96875 -68.664062 0.875 -71.28125 C 0.78125 -73.90625 1.648438 -75.847656 3.484375 -77.109375 Z M 3.484375 -77.109375 "/></g></g></g></svg>